/* XPM */
static char *KVMEfzxT[] = {
/* columns rows colors chars-per-pixel */
"80 40 70 1 ",
"  c #767676",
". c #787777",
"X c #787877",
"o c #777778",
"O c #787778",
"+ c #777878",
"@ c #7C7C7C",
"# c #807F7F",
"$ c #7F807F",
"% c #80807F",
"& c #7F7F80",
"* c #807F80",
"= c #7F8080",
"- c #848484",
"; c #888787",
": c #878887",
"> c #888887",
", c #878788",
"< c #888788",
"1 c #878888",
"2 c #8C8C8C",
"3 c #908F8F",
"4 c #8F908F",
"5 c #90908F",
"6 c #8F8F90",
"7 c #908F90",
"8 c #8F9090",
"9 c #939393",
"0 c #989797",
"q c #979897",
"w c #989897",
"e c #979798",
"r c #989798",
"t c #979898",
"y c #9B9B9B",
"u c #A09F9F",
"i c #9FA09F",
"p c #A0A09F",
"a c #9F9FA0",
"s c #A09FA0",
"d c #9FA0A0",
"f c #A3A3A3",
"g c #A8A7A7",
"h c #A7A8A7",
"j c #A8A8A7",
"k c #A7A7A8",
"l c #A8A7A8",
"z c #A7A8A8",
"x c #ACABAC",
"c c #B0AFAF",
"v c #AFB0AF",
"b c #B0B0AF",
"n c #AFAFB0",
"m c #B0AFB0",
"M c #AFB0B0",
"N c #B3B3B3",
"B c #B7B8B7",
"V c #B8B8B7",
"C c #B7B7B8",
"Z c #B8B7B8",
"A c #B7B8B8",
"S c #BABABA",
"D c #C4C4C4",
"F c #CBCCCB",
"G c #D4D4D4",
"H c #DBDBDB",
"J c #E5E5E5",
"K c #EBEBEB",
"L c #F3F3F3",
"P c #FFFFFF",
/* pixels */
"Mxbxnxxxxkkkfffffffppiypyyyytyee00eq999689229222222,;,,,----%%%#@@@@@@@++X..    ",
"Nxvbxxxxkxxgkkgfffpffpfyyuyyy0er009999998992622222:2>,,-,----%#--%@#@+@++@.     ",
"NMxxxxxxxhkkjjfgffffpfysyiyyyyy0qqqqe999929242222<2,>>;,----*--@#@@#@@@+@+X.    ",
"xNxNmxxxjxzjjfgfffppfyfyfyyyyye0q0q99998992927922222>>,--,-----*@-#@@@@@X++     ",
"Nncxxxxxxkxjgkkfkffpfpyfyayuyywyee0qe999977693922222,;,,,-,---&#-@@%@@@@@.....  ",
"NMNxxNcxxxxjjkfkfffffpfyfyyayyyye00eq9999796272222222>,,,,---*--%@%@*@@@@+@+.   ",
"MvNnbmxxxxxjjhhkffffpfyfyayyyyyyye9eq0999997924222222,,,-,,----@%--@@@@@++@O.   ",
"NnxMcxxxxjxjjgkkkffffffufyiyyyyyye0qqe99995797292222>2>2>-------%-@-@&@@@@XO.o  ",
"NNNvNxNxxxxllhkkkffffpfuiifyayyyy0009099q988962224222;2>>;,----%-@%#@#@@@X@++.  ",
"NNxcxmxxxxxxxkkkhfkfffpffdypyyyytyre009999992992522222,,;;-,,---%--@-@@@@@@X+O. ",
"bNNbNxxxxxxxjhjhfjfffffpyfayayyytyy0q9q9999992956222222,>,,------$@-@%@@@@+@++. ",
"NNNxNNNxxxxxxxjghkhffffpfyyfdyyyyyt0qqqq9998992264222>12>2,-----=--@$@%@@+@@+@..",
"NNNxbMxvxxxxxxggkkfffffsffyayiyyyy0tte0009998829222222212>>-;-----@-$*@##@@++++.",
"NNNNvNNxnxxxxgkxkxkkfffffyfsyyyyyyyqye00q099999784452222>>>-,----=-=***@@@@@@+@.",
"NNNMNDJLPPPKFxxkkNPPPGfdfaPPPJyyytyyJPPP90PPPPPPPP22PPPPPPPLG5>---yPPPF@@@@@@.XX",
"NNNNFPPPPPPPPSxjxGPPPLffffPPPPxyyyyzPPPP09PPPPPPPP88PPPPPPPPPG----DPPPK#@@@@@@+.",
"NNNNKPHNxxSLPHllxLPHPPSfifPLPPFyyyyGPLLPq0PP99929822PP22222BPL,---KPGPPy@&@@@+@@",
"NNNNPPSxNxnJPHxxNPPNKPGfffPLHPLyyyyLPHLP00PP99999229PP222122PP,--yPPqHPD@&@@@@X+",
"ZNNNPPNnccbxxxxxGPLkFPLkpfPPSPPNyySPPSPPq9PP99999992PP222<22PP,--DPK-NPK-@@@@+@+",
"NBNNPPxNcNxxxxxxLPGkxPPSffPPfLPHyyHPLyPP0qPPPPPPPP29PP22222DPJ:-,KPD-2PPy&=@@@@+",
"BNNCPPNcvxcvxxxSPPNkkJPHffPPsFPPkkPPFePP0qPPPPPPPP33PPPPPPPPKf,-yPP0%-HPF@@@$@@+",
"NSNNLPNNvNMxnxxGPKxxkDPLffPPffPPDDPPftPP00PP99999692PPPPPPPPLx:>DPK---NPL@=@@@@+",
"SNNNLPSNNxxLPKxLPPPPPPPPSfPPufHPJKPGyyPPtqPPq9q99929PP22229FPK:,KPPPPPPPPy%#@@@@",
"ASNNJPHNNNFPPJSPPPPPPPPPHkPPfyNPPPPxyyPPyePP09999395PP922229PP;yPPPPPPPPPF&@@$@@",
"VSNNFPPPPPPPPFGPPxkkjhGPLkPPfpfJPPKyyyPPyqPPPPPPPP94PP672222PP2DPL>----SPL*@=@@@",
"CNNSNGKPPPLKHxLPHxxgjkxPPSPPffySPPSyyyPPt0PPPPPPPP59PP824222PP,KPF,----2PPf-@@@@",
"SNSCVNNNNNNcNxxxxxxxxkkkkfkffypfsiyyyyyyy0e000q99992929222222>2,;,:-----=%=@$@$@",
"SASNNNZNcNxNxNxNxxxhjjhfkkfffffpfyfyyyyyqyte009999998927422222>,,,,-----=-*-@*@@",
"SSNANNNNNNNxNxxxxxxxxhkkfkfhffpffyyfuyyyy00009090999929282422>2,2,,,-----%==-@@@",
"SCSSNSNNNNNbNcbbxxxxxjxzgfffffffdfsyyiyyyqy0eqq9999969292822222>>:,-,---=-@-@-@@",
"SZZNSCNNNMNMccxxxxxxxxkjgkfkfffpfyfyipyyyy0ye00q099798929222212,>>,,,----%-&@@@#",
"SSVBCNNZNNNvbmNxMxxxxzhhjkkfffffffsupypyyyytt0090999992992222222>,,,,-----*--**@",
"SSSNSNNZNNNNxNNxNxxxxkxljkgfffffaffyyysyyyyytt9e0999969629223222>2,,,-----%%@##@",
"SSSSBVSNNNNmNNxNxmxxxxxljggkkffffydffypyyyyyytqqq9999968926222222>;,-,-,-----@@-",
"SSSVVNZNNNNNNNcxmxxxxxxljjkfffffffsyfsuyyyyyyy00qe099798633222222,>>>,----%-=--@",
"SSSSSSNSNNNNNcNxxNxxxxxxjxhkfkfffdfiyyfyyyyy0q00e9q9999692292222212,>:,-----$-@-",
"SDSSCVNNANNNmNxNbxvxxxxxxkkkkffffffffuysyyyyyeyt099e9999929837222>2>;,-,---%-%#@",
"SSSSSCSBNBNNNNNmMvxmxxxxhxkkkfkfffiypuyisyyyyy0qee9qq99899222222222,>;:-,------@",
"SSSSSBSAANNNNNNbNxNxxxxjxxkgkkkffffffyfyiyyyy00000q99999779242322>>2>>,,----%%%-",
"SSSSSSBSNBANNNbNbcNxxxxxxjjgkkfffffpffsayyyyyyy0e0q9999999592922222>2>22,------@"
};
