/* XPM */
static char *bJ6RhAEZ[] = {
/* columns rows colors chars-per-pixel */
"80 40 73 1 ",
"  c #767676",
". c #787777",
"X c #787877",
"o c #777778",
"O c #787778",
"+ c #777878",
"@ c #7C7C7C",
"# c #807F7F",
"$ c #7F807F",
"% c #80807F",
"& c #7F7F80",
"* c #807F80",
"= c #7F8080",
"- c #838383",
"; c #888787",
": c #878887",
"> c #888887",
", c #878788",
"< c #888788",
"1 c #878888",
"2 c #8B8B8B",
"3 c #908F8F",
"4 c #8F908F",
"5 c #90908F",
"6 c #8F8F90",
"7 c #908F90",
"8 c #8F9090",
"9 c #939494",
"0 c #989797",
"q c #979897",
"w c #989897",
"e c #979798",
"r c #989798",
"t c #979898",
"y c #9B9B9B",
"u c #A09F9F",
"i c #9FA09F",
"p c #A0A09F",
"a c #9F9FA0",
"s c #A09FA0",
"d c #9FA0A0",
"f c #A3A3A3",
"g c #A8A7A7",
"h c #A7A8A7",
"j c #A8A8A7",
"k c #A7A7A8",
"l c #A8A7A8",
"z c #A7A8A8",
"x c #ACACAC",
"c c #B0AFAF",
"v c #AFB0AF",
"b c #B0B0AF",
"n c #AFAFB0",
"m c #B0AFB0",
"M c #AFB0B0",
"N c #B3B3B3",
"B c #B7B8B7",
"V c #B8B8B7",
"C c #B7B7B8",
"Z c #B8B7B8",
"A c #B7B8B8",
"S c #BABABA",
"D c #C0BFC0",
"F c #C2C2C2",
"G c #C7C8C7",
"H c #CBCBCB",
"J c #D5D5D5",
"K c #DCDCDC",
"L c #E3E3E3",
"P c #ECECEC",
"I c #F0F0EF",
"U c #F3F3F3",
"Y c #FEFEFE",
/* pixels */
"Mxbxxxxxxklhfgfffffpyfyyyyyyqyeeeee9999988429222222<,,,-----%-##%@@@@@++@+..    ",
"Nxvbxxxxhxkhgffhffpffyfypyyyyye0ee9e99999292622222222,-,-,---%-%@#%@@@@@XX..    ",
"MMxxcxxxxhhhlfgfffffffyffyyyyeryee9e999569922222222,>:,-;-----##@=%@@@++++.     ",
"NNxNxxxxxhxhlggfffpupssyyyuyyyyrqeq9e99998939292222<;;,,-,--*-&-%-@@@@@@@++.    ",
"xNcxxxmxxxlglkhhfffffuyfdyyyyyyqwwee99999679972622222,,,-,,---@-#@##@@@@@.....  ",
"NMNxxNxxxlxxllhffhffpffyyffyyywyww0w9e999792229222222>2;,,-----*-%%@@@@@@+@+.   ",
"NxNMbnxxxxxllhhfffffffyffyyyyyyyywe9q9999997924222222,,>,,,----*$@-@@@@@++@O.   ",
"nNxMmxxxxxxlllhhhffffpfsysfyyyyyywwqeq99995797292222;2>>>---------@-@#@@@@XO.o  ",
"NcNxcxxnxlzllhhhffffffusfyipyyyyy0e0e9999995292242222>2>>;,------@-%#@@@@.@++X. ",
"NNvNxNmxxxxxxhhhhhlffffsfaiyayaywyr0eqe999959592422222,,;,-,,--%%-#@-@%@@@@X+O. ",
"NbcbNMxxxxxxxhlkhffhffsfyffyyyyyyyyeqqeq9999539528222212>,,-,----=-=@@$@@@+@++..",
"NNNNNxNxxxxxlxllkkfffffsfyyfyayyywyeww999999992292222221>>,,------@@-@@@@+@@+@+.",
"NNNNbMvvmxxxxxgghfhfffffffyaypyyytyqeee9999995292222222:>:,,>-,---&-$@@&#@@O@++X",
"NNNnNxbxnxxxxghxhffhfffffyfayyyyyytyqewe09959592924522222:,2>------&*-=@@@@@+O+.",
"NNNMxNbcxcxxxFLUYYYPGhhVKUUYYULNyyyYYee9e999bKPYYYUKx222YYYYYYYIH2&--@@##@@@@.XX",
"NNNNNNbmmxxxGYYYYYYYYSSYYYYYYYYYNyyYYyee900cYYYYYYYYYx22YYYYYYYYYJ-$--*#@@@+@@+.",
"NNNNNNxMxnxxPYJmxhNUYJKYKxhffxKYKyyYY0wee9eJYJp929yJYJ22YY:2,-:NYU---@@-@&@@@+@@",
"BNNNNNNMNxcxUYNxlhhLYKPYmsfyayxYUyyYYey09eePYf99882yYP22YY,2,,,2YY-@--##@@@@@@X+",
"NNNNNNmmbcxvYYxxxlhhhfYYhfdfaufYYyyYYyeeqe9UYy939299YY22YY2>;,,2YY--@=&#-@@@@+@+",
"VNVNNNmNbxNxYYxxlllhfhYYfffdfyyYYyyYYyyw0e9YY9939492YY22YY2>>:2DYL-----@@=@&@@@+",
"NBNZNMNxNxxxYYxxgxlhhhYYfffffyaYUyyYYy0q0e9YY9999235YY22YYYYYYYYPi---%%#=&$@@@@+",
"VNBNNNNNvNNxUYxxxxlxhhUYhffyfffYYyyYYeyewewUYe999979YU92YYYYYYYYUx-----#-@@$@@@+",
"ANNNNNNNNxxNUYNxxzxUYLUYNfffyfNYUyyYYyyeywwUYf99965fYP22YY2,,29HYP---%%-*%@@@@@@",
"VVNNNNNNNxNxLYKNxxGYYLLYKxffhxKYKsyYYyyy00wKYJfe99yKYK22YY222,22YY,------@-@$@@@",
"VCCNVNNNNnMnGYYYYYYYYGDYYYYYYYYYVydYYYYYYYYNYYYYYYYYYx66YY2221,,YY--,--%-=-@=@@@",
"VANCNNNNNNNnvHPUYYUPJllFLUYYYIKSifyYYYYYYYYyNKIYYYIKN922YY2222>:YY:---%-%=$#$@@@",
"VVZCNNNNNnxmxNxbxxxxllhhhhfffffsaiysyyyywrweye99969487922222222,,,-,-----@@*@@@@",
"VVVNVNVNNNcNmvbxxxxxlhhhffffffssfydyyyyyy0yqeee99999292982222>2,,,,--------%=*@@",
"SSCCNNNNNNNxNxxxxxxxjjhhhhfkffsfyfsyfyyyy0r0w9099959975292222,2,>2,,,---=%=&@*@$",
"SSZCNCZNNNNxcNcxxxxxxxhhlffhfffffyfiyyuyywyewee9e99929922242222>>:,--------=@-@@",
"SSCCVNCNNMNNbNxNxxxxzxhxlhfffffsfdysyiyyyyyww0e9e99796929222222,;,,,,-----&&&@&#",
"VSACCCNNNNNvNxbxMxxxxzzhghhfffffaffpppyyyywywqee99998998924222>22>:>-,---#--*-@@",
"SSVANCVNNNNNNxNxxnxxxklxlglffffffyyfyyyuyyyyyeee99999598322232222,,,,,-----%@-@#",
"SSSVVVCVNNNmNNnMmnxxxxxlxglfkffffffsfyiyyyyyyqeee9e9994429372222>2>;,-:----%#-#@",
"SSSVVVNNNNNNNcNxnxxxxxllhhkhffkfffyypuyyyyyyeqee9e999589932222222,>>,>,:-----@=&",
"DSSSVVCCBNNNNNNxNxxxxxxxllllfhfffdfffsyfyyyywyq0we99999592927222122;:---,--%%-=@",
"SDSSSACNNNNNNcmcbNxxxxxxxkhhhffffffyyfyuyyyyyeyqwe09995992492222>222,,,----%-%@-",
"SSSVSVACVNBNNNNcMxNxxxxxxhkhkffffffffyfypyyyyye0ee9999997962922222>>,,,,-,----#-",
"SSSSSSVVANNNNNNbNxxxxxxlxllghhfffffuyfyupyyyye0w0900q99997928332>22>:>,,------#%",
"SDSSSVVVNAANNNbNbNxNxxxxxxlgkhfhffffffyayyyyyyyeqew99999699272422222>>21;,---%-@"
};
