/* XPM */
static char *SpyqTP9F[] = {
/* columns rows colors chars-per-pixel */
"80 40 69 1 ",
"  c #767676",
". c #787777",
"X c #787877",
"o c #787778",
"O c #777878",
"+ c #7C7C7C",
"@ c #807F7F",
"# c #7F807F",
"$ c #80807F",
"% c #7F7F80",
"& c #807F80",
"* c #7F8080",
"= c #838383",
"- c #888787",
"; c #878887",
": c #888887",
"> c #878788",
", c #888788",
"< c #878888",
"1 c #8C8C8C",
"2 c #908F8F",
"3 c #8F908F",
"4 c #90908F",
"5 c #8F8F90",
"6 c #908F90",
"7 c #8F9090",
"8 c #949494",
"9 c #989797",
"0 c #979897",
"q c #989897",
"w c #979798",
"e c #989798",
"r c #979898",
"t c #9C9C9C",
"y c #A09F9F",
"u c #9FA09F",
"i c #A0A09F",
"p c #9F9FA0",
"a c #A09FA0",
"s c #9FA0A0",
"d c #A4A4A4",
"f c #A8A7A7",
"g c #A7A8A7",
"h c #A8A8A7",
"j c #A7A7A8",
"k c #A8A7A8",
"l c #A7A8A8",
"z c #ACACAC",
"x c #B0AFAF",
"c c #AFB0AF",
"v c #B0B0AF",
"b c #AFAFB0",
"n c #B0AFB0",
"m c #AFB0B0",
"M c #B3B3B3",
"N c #B7B8B7",
"B c #B8B8B7",
"V c #B7B7B8",
"C c #B8B7B8",
"Z c #B7B8B8",
"A c #BABABA",
"S c gray76",
"D c #CBCBCB",
"F c #D4D4D4",
"G c #DCDCDC",
"H c #E3E3E3",
"J c #EDEDED",
"K c #F4F4F4",
"L c #FFFFFF",
/* pixels */
"mzvzzzzzzjjjdjdddidiiuttyttttww008w88886773181111111->>>====$=@@=+++++OO+X..    ",
"Mzcvnzzzjzzfjdfddddididtttttrtet00e8088881811111111-:>>=>====$$$+@++++++XXo     ",
"Mmzzzzzzzjjjhfdddddisdtyttttet9t0088888658818111111>:;>>=====%=@+*$+++OO+OX.    ",
"zMzMzxzzgzghgdffdddidtdtdytttttew9w0888888181551111,->>>=-=====&@=+@++++OOO     ",
"Mbzbzzzzzzzhfjjddddddttdtutttt00ee00088866651881111<1>>>>=>===%@$+@++++O+O....  ",
"MmMzMzzzhzkhhjdjjdddiddtdtdttttte99888888884811111111::>>>===&&=@=$+@++++O.+..  ",
"MzMMzzzzzzzfhhgjddddddtdttpttttqtww0w8088281611511111>>:>=======$+=+@+++++.O    ",
"bMczMzxzzzzzhhhddjddiddidttpttttee0w0088888868181111-1::-->====&=##&&++++XOooo  ",
"MxMzbzzxzzzjjgjjdfdddddistdtptttteeee0888886816113111,1::>=>=====+$@@+#++XO+OX. ",
"MMcMzMnzzzzzzjjjgdddddiiddttttttte9t800886881881411111>>->>======+=+=++++++OOO  ",
"MMxvMvzzzzzlhjfghjddddidtddtpttttqw90080888681815111111>:>>>-==$#=+=++++++O++.. ",
"MMMMMzMzzzzzzzhfhdjjdddidttdtttttt0t9ew88888482853111:<1::>========+$#$+++++O...",
"MMMzcczczzzzzzfjjjddddadddtptutttrrt008w888882813131111<1:;>:>===*==**+%+++oOOO.",
"MMMMMvMzzzzzzhzhjjjddddtdtdpittttttw00000988861817311111::;>;=====%*&+=+++++X++.",
"MMMMMzMzvzzzzzzjkjSHKLLLKGztdLLLLLLLKFp0889fLLLD7111LLLLLLKHq======#=+@+@++++oOO",
"MMmMMvvxxxzzzkzjzZLLLLLLLLKstLLLLLLLLLFt088DLLLK3818LLLLLLLLG;:==*==&=@@+++O+O+X",
"MMMMMMbzzmzzzzkkzHLGMjdhDLLzdLLtttttSLK0800JLFLLh714LL1111ZLL>>====$=$+=+*+++O+X",
"BMMMMMmMxxnzzzzzjKLMjjddjLLZiLLttttttLL000jLLjHLD881LL11111LK>>======$@@++++O++X",
"MBMMMMMbxzzvzzzzkKLjjddddddsdLLitttttLKt08DLK8ALK851LL1111vLH:>====$$=+&=++++++O",
"ZMMMMMzMMzMzzzzzzLLjjjdjddsdtLLtdttaDLJ090JLD8tLLz18LLLLLLLJd:;==>===&=++%*+++OO",
"MNMBMMMnzmzzzzzzhLLfjgLLLLLMdLLLLLLLLJMtezLLj88HLD18LLLLLLLLz>>=====$=$=*%++#+O+",
"ZZMMMMMMMcMzbzzzzLLMdhLLLLLzdLLLLLLLLKZteDLJ808ZLK86LL1211zLJ1>>;=>===$$=+$+++++",
"ZBMMMMnMvvMzzzzzzKLZfjjdjLLdtLLtyytjFLJttJLLLLLLLLz4LL11111LL:;>>======$%$++++++",
"ZMMMMMMMMMznmmzzzHLGzfjhSLKddLLtttttpLLezLLLLLLLLLF4LL2111vLK1:=>=====$==+=+++++",
"ZCBMMMMMMbbbzMzzzDLLLLLLLLGddLLddttttLLtDLK90888DLK8LLLLLLLLG>>>;>=====$=%=+*+++",
"ZCMBBMMMMMnbzMzzzzSJKLLKJFjjyLLydtsttLLtJLFt8088tLLzLLLLLLLHr1:;:=>===$=#=++#+++",
"ZCCBMMBMMnMzzzzzzzzzfhhdjdddddduyutyttttee0000888881811718111:1>>>;======++=+@++",
"ZZCMBMMMMMxMMvvmzzzzzhgjjjddddiddtstttttte00088088883881111111:>>;>========+=+++",
"ZZBBMMMMMMnxMzzzzzzzghjjdjdjdddidtdttyttet9t09088868818581111:1;1>>>====*+=++&+#",
"AACBBCCMMMMcMxvvzzzzzzjjfddddddisdtptttttte9we8008888116171111<1::>=>=====%=+=++",
"AACBVMVMMMMMzxzzzzzzlzjzfjdddddddpyttuttt9e9e088088658185111111>::>>>====+=+*+&+",
"AZZZMCMMMMzMMvMzzczzzlgghjjjdddidydiituttttte0008888888183111111:;>>>=>======+&@",
"AAZCCMCMMMMMMzMzzbzzzzzfhfhddddddtsuttattttrt0w88088868181211111-1>>>==;=$=$+@++",
"AAAAZBBMMMMnMMbvMzbzzzkkzffddddddddtdttttttre0w0e8888818661111111;->=>=>===$=*=+",
"AAZZZBMBMMMMMxMzzzzzzjzjjgjjjddddiaddtitttttt0000e888688881811111>:>:>=======@=+",
"AAAZCBBBZMMMMMMzzMzzzzzkzhhdjdddsddtayaytttt9t0ww89888667141111111:>:;>=>==$+=*@",
"ASAAZABMMMMMnMnxMMzzzzzzhgjjjddddidtdytatatttw000888888687186111:111->>====$=$+&",
"AAAAAZBBZMBMMMMxczMzzzzzzjjjjdjdddddtituttttttwtwe9808886581212111-:--->>======*",
"AAAAAZZZZMMMMMvMMvzzzzzzzhffjjjddddadtdttyttt0eq90888886811276111:1:::--======@$",
"AAAAAAZZMNZMMMMMzvzMzzzzzzhhjjdddddiddupttttttt9w0e0088888818131111:1:11>====$$@"
};
