/* XPM */
static char *minus[] = {
/* columns rows colors chars-per-pixel */
"20 20 9 1",
"  c #0B0B0B",
". c #1B1B1B",
"X c #242424",
"o c #2A2A2A",
"O c #363636",
"+ c #464646",
"@ c #A1A1A1",
"# c #A5A5A5",
"$ c #AAAAAA",
/* pixels */
"$$$$$$$$$$$$$$$$$$$$",
"$$$$$$$$$$$$$$$$$$$$",
"$$$$$$$$$$$$$$$$$$$$",
"$$$$$$$$$$$$$$$$$$$$",
"$$$$$$$$$$$$$$$$$$$$",
"$$$$$$$$$$$$$$$$$$$$",
"$$$$$$$$$$$$$$$$$$$$",
"$$$$$$$$$$$$$$$$$$$$",
"$$$$$$$$$$$$$$$$$$$$",
"$$$$$#OXXXXX+$$$$$$$",
"$$$$$@.     o$$$$$$$",
"$$$$$$$$$$$$$$$$$$$$",
"$$$$$$$$$$$$$$$$$$$$",
"$$$$$$$$$$$$$$$$$$$$",
"$$$$$$$$$$$$$$$$$$$$",
"$$$$$$$$$$$$$$$$$$$$",
"$$$$$$$$$$$$$$$$$$$$",
"$$$$$$$$$$$$$$$$$$$$",
"$$$$$$$$$$$$$$$$$$$$",
"$$$$$$$$$$$$$$$$$$$$"
};
