/* XPM */
static char *plus[] = {
/* columns rows colors chars-per-pixel */
"20 20 17 1",
"  c #0B0B0B",
". c #0C0C0C",
"X c #161616",
"o c #171717",
"O c #2A2A2A",
"+ c #343434",
"@ c #373737",
"# c #404040",
"$ c #5D5D5D",
"% c #606060",
"& c #6D6D6D",
"* c #848484",
"= c #969696",
"- c #989898",
"; c #9D9D9D",
": c #A5A5A5",
"> c #AAAAAA",
/* pixels */
">>>>>>>>>>>>>>>>>>>>",
">>>>>>>>>>>>>>>>>>>>",
">>>>>>>>>>>>>>>>>>>>",
">>>>>>>>>>>>>>>>>>>>",
">>>>>>>>>>>>>>>>>>>>",
">>>>>>>>=X$>>>>>>>>>",
">>>>>>>>* #>>>>>>>>>",
">>>>>>>>* #>>>>>>>>>",
">>>>>>>>* #>>>>>>>>>",
">>>:#+++O X++++*>>>>",
">>>;X..     ...&>>>>",
">>>>>>>>* #>>>>>>>>>",
">>>>>>>>*.#>>>>>>>>>",
">>>>>>>>*.#>>>>>>>>>",
">>>>>>>>*.#>>>>>>>>>",
">>>>>>>>-X%>>>>>>>>>",
">>>>>>>>>>>>>>>>>>>>",
">>>>>>>>>>>>>>>>>>>>",
">>>>>>>>>>>>>>>>>>>>",
">>>>>>>>>>>>>>>>>>>>"
};
