/* XPM */
static char *cACWKmGS[] = {
/* columns rows colors chars-per-pixel */
"80 40 69 1 ",
"  c #767676",
". c #787777",
"X c #787877",
"o c #787778",
"O c #777878",
"+ c #7C7C7C",
"@ c #807F7F",
"# c #7F807F",
"$ c #80807F",
"% c #7F7F80",
"& c #807F80",
"* c #7F8080",
"= c #838383",
"- c #888787",
"; c #878887",
": c #888887",
"> c #878788",
", c #888788",
"< c #878888",
"1 c #8C8C8C",
"2 c #908F8F",
"3 c #8F908F",
"4 c #90908F",
"5 c #8F8F90",
"6 c #908F90",
"7 c #8F9090",
"8 c #949494",
"9 c #989797",
"0 c #979897",
"q c #989897",
"w c #979798",
"e c #989798",
"r c #979898",
"t c #9C9C9C",
"y c #A09F9F",
"u c #9FA09F",
"i c #A0A09F",
"p c #9F9FA0",
"a c #A09FA0",
"s c #9FA0A0",
"d c #A4A4A4",
"f c #A8A7A7",
"g c #A7A8A7",
"h c #A8A8A7",
"j c #A7A7A8",
"k c #A8A7A8",
"l c #A7A8A8",
"z c #ACACAC",
"x c #B0AFAF",
"c c #AFB0AF",
"v c #B0B0AF",
"b c #AFAFB0",
"n c #B0AFB0",
"m c #AFB0B0",
"M c #B3B3B3",
"N c #B7B8B7",
"B c #B8B8B7",
"V c #B7B7B8",
"C c #B8B7B8",
"Z c #B7B8B8",
"A c #BABABA",
"S c #C4C4C4",
"D c #CCCCCC",
"F c #D3D3D3",
"G c #DDDDDD",
"H c #E2E2E2",
"J c #EEEEEE",
"K c #F3F3F3",
"L c #FFFFFF",
/* pixels */
"mzvzzzzzzzfjffidddidtstytttt0ww008w88886318811111111>---=====**%=+++++O+XO..    ",
"Mzcvzzzzgjjjffdfdddudidttyttttet0w8w08888731511111<-<>-=-====*+=+@+++++OOX..    ",
"mmzzxzzzzzjjgdfdiddiidtpdtttt09t90088886185881611111<<>-=====*=%+*$++++++OX.    ",
"MMzMzzzzzgjjgffdfddidtdttttttttee908888888611115111><<-=-======&@=+++++OOOO     ",
"zMxzzzbzzzzhjjfddddddttdututttt0tee8w88886688111111<1----=-===%&$+@@+++O+.....  ",
"MmxMzMzzzkzhgjfjddddiddtdstptttqeee808888481181811111:-->-===%&=@=$+&++++O.+..  ",
"mmMzvznzzgzhggfdjdddddtdtattttttt0w0w8886886811111111->---======$+=+@+++++.O    ",
"Mbznbzzzzzzhgjgfddfdiddiatuttttte9000088888686511111-11-<=-====&=##&&++++OOooo  ",
"MxMzzzznzzzjkgjjffddduuautttptttteee89888868181831111><-<>-======+$@@+#++X+OO.. ",
"MMcMMMnzzzzlzjjjgdddddduddudttttte0t00w8886884711111111--->=====#==+=++++++XOo. ",
"MvxvMzzzzzzzzghgfdfdddudtdttptttt0w9w00888884282711111<1<--======#==+$++++O+OO  ",
"MMMMMzMzzzzzkzhfjjdddddudtdtdttttttee808888688115311111<<<---=====++$+#++O++O+..",
"MMMvcczczzzzzzfffjjdddddddtptttttrtw0w00088868181311111<<<<--=====+%*&+%@++o+OO.",
"MMMMcMMznzzzzhjzhgjfdddddtdpdtttttrtww0008888284817111111<<-=;-=====&+=+++++OO+.",
"MMMmMzcMLLLLLLLKGzjjAHJKLLKGCutLLLLLLLLL0088dLLLD811LLLLLLLLL-=LLLLLLLL+@++O+.XX",
"MMMMvMvzLLLLLLLLLGjALLLLLLLLLCiLLLLLLLLL8888DLLLK177LLLLLLLLL-=LLLLLLLL@++++++O.",
"MMMMMMbzLLzzzzzDLKjGLGvjddzFLGtttttLLee00808JLFLLl311111LL---<=LL==#*@+=+++++O+X",
"MMMMMMmMLLzzzzzzLLjJLMdddidzLKittttLL0te008fLLkHLD248111LL1:-=-LL===+=@@+%++++O+",
"CMMMMMMbLLvzzzzzLLjKLhdddddjLKyutttLLtqw088DLJ8ALK511111LL1:>--LL=====++=+%++O+O",
"NMMMMMzMLLzznznFLJjLLjdfddstLLutpttLLt0t900JLD8tLLz83711LL1;>--LLLLLLLL=+*+++++O",
"NCNMMMnMLLLLLLLLJCjLLjfdddddLLdttttLLetre0kLLj88GLF41331LL1><;-LLLLLLLL=*%#++++O",
"NMMMMMMbLLLLLLLLKSjLLfjdddddLLtddttLLt9we0DLJ886CLK18112LL111--LL=-===&+=%+#+++O",
"MCMCMMMcLLMzzzMGLKgKLMfddddzLJyttdtLLtttteJLLLLLLLLz5181LL1,1<;LL-====*=+$++++++",
"ZZMMMMMMLLzMzmzMLLzHLGvjjjzGLGdtdttLLtee9kLLLLLLLLLF7111LL11<<>LL=-==*=@=+=++#++",
"BCCMNMMMLLMzzzzzLLzSLLLLLLLLLAddtysLLttttDLK00880SLK6256LL111<-LLLLLLLL==+*+++++",
"VMNCMMMMLLMmMmzzLLzjSHKLLKKHAddtdttLLttt9JLF08w88tLLz751LL11<1<LLLLLLLL*$=*=$#++",
"CMMCBMMMMMnxzzzvzzzlggffjddddtsuttsyttt0t9e08088884881811511111-<>---====#%++@++",
"ANBNMBMMxMnnMcvzzzzzgjjfjjdddddddupttttttee0908888883811111111<-<<======%==+=+++",
"ACNMZMMMMMMzMzzzzzzzghjjffdddddudtapttttt9e0e90888861818811111<<1--=======**&+++",
"ACZNCMVMMMMzxMvvzzzzzzzljdfdddduudptyttttqt0we88888885811131<1<1<;=--====++=+=*+",
"ACCNCCMMMmMMMMzzzzzzlzjhjfffdddddtdtityttte9e080808678816111111><><=-======%++++",
"AAANZMZMMMMcxzMzzczzzlhgjfddddduddaiiutttttte00088888878181111111<<--=====@==&&=",
"AAAZCMCMMMMMzMMnzbbzzzzkjffdddddtdputtattttrt0w80088685816112111<1---======*+@@+",
"AACCCBBMMMMMMMzzMzzzzzkkgfjfdddddduddtytttttt0w088888881816111111;--=-<======++&",
"AAACCCMNMMMMMMxcznzzzlzjggjjjdddpdttdttttttt0w000e888678812111111-;-<-=====**=*%",
"AAAACNNMMMMMMxMzMzzzzzkzzgdfjjdddsddayaittttet0ew8988886181811111>1-;;-=====$=*+",
"AAAACANNZMNMnMzMcMzzzzzzggjjfddddddddyyttttttee0088888866818681111:1-;=-====*=+=",
"AAAACZNNMMMMMMMnczMzzzzzhzjjjddddduttitdyttttte0ew988088818111111:1;;;;;-===*==+",
"AAAAAABNCMMMMMvMMxzzzzzzzhgfjjjddddddtutittttwt09089888666817211111;;:;;-====*%=",
"AASACCCCZZMNMMMMzvvnzzzzzfzhjjdddaiddpdatttttttqw0e8088888814141:111-1;1=======+"
};
