/* XPM */
static char *XhmRXf5H[] = {
/* columns rows colors chars-per-pixel */
"80 40 72 1 ",
"  c #767676",
". c #787777",
"X c #777877",
"o c #787877",
"O c #777778",
"+ c #787778",
"@ c #777878",
"# c #7C7C7C",
"$ c #807F7F",
"% c #7F807F",
"& c #80807F",
"* c #7F7F80",
"= c #807F80",
"- c #7F8080",
"; c #838383",
": c #888787",
"> c #878887",
", c #888887",
"< c #878788",
"1 c #888788",
"2 c #878888",
"3 c #8C8C8C",
"4 c #908F8F",
"5 c #8F908F",
"6 c #90908F",
"7 c #8F8F90",
"8 c #908F90",
"9 c #8F9090",
"0 c #939393",
"q c #989797",
"w c #979897",
"e c #989897",
"r c #979798",
"t c #989798",
"y c #979898",
"u c #9C9C9C",
"i c #A09F9F",
"p c #9FA09F",
"a c #A0A09F",
"s c #9F9FA0",
"d c #A09FA0",
"f c #9FA0A0",
"g c #A4A3A3",
"h c #A8A7A7",
"j c #A7A8A7",
"k c #A8A8A7",
"l c #A7A7A8",
"z c #A8A7A8",
"x c #A7A8A8",
"c c #ACACAC",
"v c #B0AFAF",
"b c #AFB0AF",
"n c #B0B0AF",
"m c #AFAFB0",
"M c #B0AFB0",
"N c #AFB0B0",
"B c #B3B3B3",
"V c #B7B8B7",
"C c #B8B8B7",
"Z c #B7B7B8",
"A c #B8B7B8",
"S c #B7B8B8",
"D c #BABABA",
"F c #C3C3C3",
"G c #CCCCCC",
"H c #D3D3D2",
"J c #DCDCDC",
"K c #E3E3E3",
"L c #E8E7E8",
"P c #EDEDED",
"I c #F4F4F4",
"U c #FFFFFF",
/* pixels */
"Ncnccccccllllggggagaguuuiuuuurrrrr0000005397330333>11>>>;;;;=;==;#####oo#@O     ",
"Bcbncccclcchglhggggagaguuuuuyuur0rr0w0000703753333231<;<;;;;;===########  +.    ",
"NNccvccccjllkkghggagfgudguuuureuerrrr00690030433333<111:1;;;;*;$#;&####o #o     ",
"BBcBccccclkkkghggggaguguuuauuuuteqr0000000303333331311>;;>;;;;;=&$$######o #    ",
"cBvcccmcccckhllggggggaaafuuiuuuwue0r0000088794033333>:>>>;>;;;*=##;&####+#++ .  ",
"BNBccBccchckklglgggggigugpusuuueeeeer000080488333333:3>><>;;;==;;&#######  #@   ",
"BcBNnMcccjckkjjllgggaguguduuuuuuuqr0w0r0000003533333311>>;;;;;;;&=;$######      ",
"mBcNMcccccckkhlllgggaggidufuuuuuuewwrr000063089333333>3>11>;;;;$&;##;#### # #   ",
"BvBccccmccczzxlllggggaagguguuuuueturr0r0000083035333131>1>;;;;;;;#&&$#%## #@#o  ",
"BBbBBBMccczccjllkglggggapguusuuuueqqqe00000660303333313>:><;<;;;;#;#;######  +  ",
"BnvnBccccccckljjlglgggaapdguuuusueurw0r000060303033333<31>>>;;;=-;#;######X##   ",
"BBBBBcBccccccckhjjggggggugugusuuuuerwrr0000060407333333>11>;:>;;;;;#&&&######.#+",
"BBBBnNbbcccccchhlllggggsggsupuuuuuuwrqrrq00006539333333>3><>>;;;;-;;%*#*###+@@# ",
"BBBmBcncccccchlcxcglgggggusguguuuuyrerrrw000060630933333>32>>;;;;;*-=--######   ",
"BBBNcBbvBccccccJIIUIIKbgdgDKIIUILFuuuwcUUUG0060UU6533333UUUUUUUU;;;;;##-####.##o",
"BBBBBBnvvcccccKUUUUUUUPggFUUUUUUUUBuryGUUUI0006UU3033333UUUUUUUU;-;#;;-####### o",
"BBBBBBmccmccccIUGclhGUIhgLUHjuucIUGuuuPUJUUc000UU3633333UU3>>;>;;;;=;##=#*### # ",
"VBBBBBBNBcvcccUUczllhlgglIUcugipJUJurcUUcKUH000UU0090333UU,>>>>;;;;;=;;#$##### #",
"BBBBBmMMnvcNccIUDcclgllggIUgguuuuuuuuGUPrFUI000UU3333333UU331>;<;;;=;===;###@##X",
"CBCBBBBBncBcccJUUIIPKGkggUUpaggupuuuuPUGruIUc00UU0809353UUUUUUUU>;;;;=;##*-####X",
"SCVBBBvBcncccccFHKLPUUJlgUUgguguuuuucUUcreKUH00UU0303333UUUUUUUU;;;;;&;=-#######",
"BBBBBBBcBbBccccccckkBUIggIUgggaiuasuGUPur0DUIr0UU0045553UU333>>>;>>;;;$$;*-#%###",
"CSBZBBBBnNcBcGUPccllcUUlgPUcugguIUKuPUUUUUUUUcrUU7047033UU3131>;>;;;;&=;*&#%####",
"ZZBBBBBBBbBccGUUCclcGUIglKUHlggFUUKcUUUUUUUUUH0UU0309334UU313111>;>;;;;=;#&#####",
"CCABCBBBBmNmcBUUUUUUUUJllFUUUUUUUUFHUIuuurrGUI0UUUUUUUU7UUUUUUUU<>;;;;=;;#*%####",
"ZBZCBBBBBBBmcBFLIUUIPJcklgFLIIUIPGuIUHuuueraUUnUUUUUUUU3UUUUUUUU;><;;;;;;;-&%%##",
"CBZBBBBBBMmccccnccccclllhglggpaggupuuuuueter00000003030330333>3>:><;>;;;%&*##$##",
"DSCACBCBBBvBBbnccccckjlgllgggggaugsuuuuuuqutqrqr0000903033333331<<>;;;;=*;;#;###",
"CCZZBBBBBBBvvccccccccjclghggggagguguuuuueetqrqr0r000786333333>23>>>>;;;;;;#-#=##",
"DDAZBZABBBBccBnvcccccjklhlhggggaggufauuuuuuqre0r000009039033333>3>>;>;;;;*#;#;#*",
"DCCZCBZBBNBBBBccbccccxjjlglgggagpsiuupguuuueerr00r080703833333131:1;>;;;;;;-*#=#",
"DDDSSZBBBBBbBcBccccccjcjklgljgggsgguguuuueueewq0r00000903033333<31<>>;;;;;=;;#$$",
"DDCSBZCBBBBBBcBcmmccchhcklkgggggguuapduuuuuyurrrrr00066303833333>:><>>;;;;;=;###",
"DDDDCCABBBBMBBNvccccccczkhhhlggggggdpuuiuuuuuwrr000000053033433333::>><;;;;;#;;#",
"DDCCCCBZBBBBBvBcBccccchzkklggggggguugdauuuuuewrrq000000003003333><31;;>;;;=;;&*;",
"DDDDCCZSBBBBBBBcBccccccckcjlglgggsggiusiuuuuureqqrr000668433333333>:>>;>>;=;#;-#",
"DDDDSSZBCBBBMBMvbBccccccccllllgggggugiuduuuueuerr0r000600303333333:11<>>;;;;;=#=",
"DDDDDDCZCBBBBBBvNcBcccccjzlllggggggguaipauuuururew0q0000007343433,3>1;>>;;;;;=;#",
"DDDDDCCSSBCBBBBnBccccccccklllgggggggguugauuuutuqerr0w00088309433333:1,<<:;;;;;$;",
"DDFDDCCCBSSBBBnBnBcBcccccckgllllggugggfuuuuuuuerwrr0000090030363,333>3<3>;;;;==="
};
