/* XPM */
static char *X[] = {
/* columns rows colors chars-per-pixel */
"40 40 41 1",
"  c #000000",
". c #050505",
"X c #0A0A0A",
"o c #0D0D0D",
"O c #141414",
"+ c #181818",
"@ c #1E1E1E",
"# c #212121",
"$ c #252525",
"% c #282828",
"& c #2D2D2D",
"* c #3F3F3F",
"= c #424242",
"- c #545454",
"; c #595959",
": c #626262",
"> c #666666",
", c #696969",
"< c #6C6C6C",
"1 c #757575",
"2 c #7E7E7E",
"3 c #858585",
"4 c #8A8A8A",
"5 c #919191",
"6 c #989898",
"7 c #A1A1A1",
"8 c #A6A6A6",
"9 c #B2B2B2",
"0 c #BEBEBE",
"q c #C3C3C3",
"w c #CBCBCB",
"e c #CFCFCF",
"r c #D8D8D8",
"t c #DCDCDC",
"y c #E7E7E7",
"u c #E8E8E8",
"i c #EFEFEF",
"p c #F1F1F1",
"a c #F3F3F3",
"s c #FCFCFC",
"d c #FFFFFF",
/* pixels */
"                                        ",
"                                        ",
"                                        ",
"                                        ",
"                                        ",
"                                        ",
"                                        ",
"                                        ",
"                                        ",
"                                        ",
"                                        ",
"                                        ",
"                                        ",
"           9qX     $t3                  ",
"           0d7    .wd5                  ",
"           +yd:   3deX                  ",
"            *dp& *di$                   ",
"             1dr@yd-                    ",
"              9dpd5                     ",
"              oidy.                     ",
"              >ddd-                     ",
"             &pd>dp$                    ",
"            otd< 2deX                   ",
"            8d9   qd6                   ",
"           ,duO   @id;                  ",
"          %pd=     -dp#                 ",
"          &u1       4u$                 ",
"                                        ",
"                                        ",
"                                        ",
"                                        ",
"                                        ",
"                                        ",
"                                        ",
"                                        ",
"                                        ",
"                                        ",
"                                        ",
"                                        ",
"                                        "
};
