/* XPM */
static char *Y[] = {
/* columns rows colors chars-per-pixel */
"40 40 37 1",
"  c #000000",
". c #040404",
"X c #080808",
"o c #0E0E0E",
"O c #111111",
"+ c #171717",
"@ c #202020",
"# c #242424",
"$ c #323232",
"% c #343434",
"& c #3A3A3A",
"* c #3E3E3E",
"= c #414141",
"- c #494949",
"; c #4E4E4E",
": c #565656",
"> c #5F5F5F",
", c #626262",
"< c #646464",
"1 c #6C6C6C",
"2 c #7D7D7D",
"3 c #8C8C8C",
"4 c #969696",
"5 c #999999",
"6 c #9F9F9F",
"7 c #A6A6A6",
"8 c #BCBCBC",
"9 c #C1C1C1",
"0 c #CACACA",
"q c #D5D5D5",
"w c #D8D8D8",
"e c #DEDEDE",
"r c #E5E5E5",
"t c #EAEAEA",
"y c #F6F6F6",
"u c #FAFAFA",
"i c #FDFDFD",
/* pixels */
"                                        ",
"                                        ",
"                                        ",
"                                        ",
"                                        ",
"                                        ",
"                                        ",
"                                        ",
"                                        ",
"                                        ",
"                                        ",
"                                        ",
"                                        ",
"                                        ",
"          =r,       4e+                 ",
"          &iy#     :iro                 ",
"           3i9    +ti-                  ",
"           Xqi1   7i5                   ",
"            $uy@ ;ieo                   ",
"             2i8Ori*                    ",
"             .0iwi3                     ",
"              #uiqX                     ",
"               7i<                      ",
"               6i,                      ",
"               6i>                      ",
"               6i,                      ",
"               6i,                      ",
"               1t%                      ",
"                                        ",
"                                        ",
"                                        ",
"                                        ",
"                                        ",
"                                        ",
"                                        ",
"                                        ",
"                                        ",
"                                        ",
"                                        ",
"                                        "
};
