/* XPM */
static char *Z[] = {
/* columns rows colors chars-per-pixel */
"40 40 31 1",
"  c #000000",
". c #050505",
"X c #121212",
"o c #141414",
"O c #1A1A1A",
"+ c #2A2A2A",
"@ c #313131",
"# c #3D3D3D",
"$ c #464646",
"% c #494949",
"& c #4E4E4E",
"* c #5C5C5C",
"= c #606060",
"- c #6C6C6C",
"; c #717171",
": c #919191",
"> c #949494",
", c #9F9F9F",
"< c #A2A2A2",
"1 c #B3B3B3",
"2 c #B7B7B7",
"3 c #B8B8B8",
"4 c #BBBBBB",
"5 c #C6C6C6",
"6 c #DFDFDF",
"7 c #E0E0E0",
"8 c #E7E7E7",
"9 c #E8E8E8",
"0 c #F7F7F7",
"q c #FAFAFA",
"w c #FFFFFF",
/* pixels */
"                                        ",
"                                        ",
"                                        ",
"                                        ",
"                                        ",
"                                        ",
"                                        ",
"                                        ",
"                                        ",
"                                        ",
"                                        ",
"                                        ",
"                                        ",
"                                        ",
"           :wwwwwwww9+                  ",
"           *2222222ww%                  ",
"                  ,w3                   ",
"                 -w6X                   ",
"                #q0@                    ",
"               O8w*                     ",
"              .5w>                      ",
"              >w5.                      ",
"             =w8O                       ",
"            @0q#                        ",
"           o7w-                         ",
"           3w<                          ",
"          &ww11111111$                  ",
"          +9wwwwwwwww;                  ",
"                                        ",
"                                        ",
"                                        ",
"                                        ",
"                                        ",
"                                        ",
"                                        ",
"                                        ",
"                                        ",
"                                        ",
"                                        ",
"                                        "
};
